<svg xmlns="http://www.w3.org/2000/svg" xmlns:xlink="http://www.w3.org/1999/xlink" version="1.1" style="enable-background:new 0 0 1270 121.9;" xml:space="preserve" width="1270" height="122"><rect id="backgroundrect" width="100%" height="100%" x="0" y="0" fill="none" stroke="none"/>
<style type="text/css">
	.st0{opacity:2.000000e-02;}
	.st1{fill:#FFFFFF;}
</style>

<g class="currentLayer"><title>Layer 1</title><g class="st0" id="svg_1">
	<path class="st1" d="M0,119.1V2.8h62.9c10.2,0,18.5,3.1,24.7,9.3c6.3,6.2,9.4,13.8,9.4,22.8c0,14.6-6.2,24.3-18.4,29.2v0.3   c10.2,2.8,15.9,11.9,17,27.2c0,0.2,0.1,2.3,0.3,6.1c0.2,3.9,0.4,6.7,0.6,8.4c0.2,1.7,0.6,4,1.3,6.7c0.7,2.7,1.6,4.8,2.7,6.4H74.8   c-0.9-2.2-1.5-4.8-2-7.9c-0.4-3.1-0.8-6.7-1.1-10.8c-0.3-4.1-0.7-7.2-1-9.1c-0.9-6.3-2.8-10.8-5.6-13.5c-2.9-2.7-7.5-4.1-13.8-4.1   H25.6v45.5H0z M25.6,22.7v32.8h28.1c11.8,0,17.6-5.5,17.6-16.6c0-10.8-5.9-16.1-17.6-16.1H25.6z" id="svg_2"/>
	<path class="st1" d="M112.8,61.4c0-17.7,5.2-32.4,15.5-44C138.7,5.8,152.6,0,170.1,0c17.5,0,31.5,5.8,41.8,17.4   c10.3,11.6,15.5,26.3,15.5,44c0,17.3-5.2,31.7-15.5,43.2c-10.3,11.5-24.3,17.3-41.8,17.3c-17.5,0-31.5-5.8-41.8-17.3   C118,93.1,112.8,78.7,112.8,61.4z M138.4,61.4c0,10.9,2.6,20.1,7.8,27.6c5.2,7.6,13.2,11.3,23.8,11.3c10.7,0,18.6-3.8,23.8-11.3   c5.2-7.6,7.8-16.8,7.8-27.6c0-7.2-1-13.7-3-19.5c-2-5.8-5.5-10.7-10.4-14.6c-4.9-3.9-11-5.9-18.3-5.9c-7.3,0-13.4,2-18.3,5.9   c-4.9,3.9-8.4,8.8-10.4,14.6C139.4,47.8,138.4,54.3,138.4,61.4z" id="svg_3"/>
	<path class="st1" d="M343.8,2.8v72.4c0,15.4-4.3,27.1-13,35c-8.7,7.9-20.9,11.8-36.8,11.8c-16,0-28.3-3.9-36.8-11.7   c-8.5-7.8-12.8-19.5-12.8-35.1V2.8H270v72.4c0,7.7,1.7,13.9,5,18.4c3.3,4.6,9.7,6.8,19,6.8c8.9,0,15.2-2,18.8-5.9   c3.6-4,5.4-10.4,5.4-19.3V2.8H343.8z" id="svg_4"/>
	<path class="st1" d="M358.5,80.5h24.8c0,7.3,2.4,12.7,7.3,16.2c4.8,3.5,11,5.3,18.5,5.3c3.6,0,6.9-0.4,10-1.1   c3.1-0.7,6-2.2,8.7-4.5c2.7-2.3,4-5.3,4-9c0-2.1-0.5-3.9-1.6-5.5c-1-1.6-2.2-3-3.5-4c-1.3-1-3.3-2.1-6-3.1c-2.7-1-5-1.8-6.9-2.3   c-2-0.5-4.7-1.2-8.3-2.1c-3.6-0.9-6.4-1.7-8.3-2.2c-4.9-1.2-9.2-2.5-12.8-4c-3.6-1.5-7.3-3.4-10.9-5.9c-3.6-2.5-6.3-5.7-8.2-9.6   c-1.9-3.9-2.9-8.4-2.9-13.5c0-11.2,4.4-19.9,13.1-26C384.2,3.1,394.4,0,406,0c8.6,0,16.3,1.2,23,3.6c6.7,2.4,12.4,6.5,16.9,12.3   c4.5,5.8,6.8,13,6.8,21.6h-24.8c-0.7-11.7-8.3-17.6-23-17.6c-4.7,0-8.8,1.1-12.3,3.3c-3.5,2.2-5.3,5.5-5.3,9.9c0,4.2,1.9,7.2,5.7,9   c3.8,1.8,13.5,4.6,29.1,8.6c23.1,5.2,34.6,16.5,34.6,33.9c0,11.1-4.2,20.1-12.7,27c-8.4,6.9-20.4,10.3-35.8,10.3   c-14,0-25.9-3.5-35.5-10.6C363,104.2,358.3,94,358.5,80.5z" id="svg_5"/>
	<path class="st1" d="M464.5,80.5h24.8c0,7.3,2.4,12.7,7.3,16.2c4.8,3.5,11,5.3,18.5,5.3c3.6,0,6.9-0.4,10-1.1   c3.1-0.7,6-2.2,8.7-4.5c2.7-2.3,4-5.3,4-9c0-2.1-0.5-3.9-1.6-5.5c-1-1.6-2.2-3-3.5-4c-1.3-1-3.3-2.1-6-3.1c-2.7-1-5-1.8-6.9-2.3   c-2-0.5-4.7-1.2-8.3-2.1c-3.6-0.9-6.4-1.7-8.3-2.2c-4.9-1.2-9.2-2.5-12.8-4c-3.6-1.5-7.3-3.4-10.9-5.9c-3.6-2.5-6.3-5.7-8.2-9.6   c-1.9-3.9-2.9-8.4-2.9-13.5c0-11.2,4.4-19.9,13.1-26C490.2,3.1,500.3,0,512,0c8.6,0,16.3,1.2,23,3.6c6.7,2.4,12.4,6.5,16.9,12.3   c4.5,5.8,6.8,13,6.8,21.6h-24.8c-0.7-11.7-8.3-17.6-23-17.6c-4.7,0-8.8,1.1-12.3,3.3c-3.5,2.2-5.3,5.5-5.3,9.9c0,4.2,1.9,7.2,5.7,9   c3.8,1.8,13.5,4.6,29.1,8.6c23.1,5.2,34.6,16.5,34.6,33.9c0,11.1-4.2,20.1-12.7,27c-8.4,6.9-20.4,10.3-35.8,10.3   c-14,0-25.9-3.5-35.5-10.6C469,104.2,464.3,94,464.5,80.5z" id="svg_6"/>
	<path class="st1" d="M577.8,119.1V2.8H665v21.5h-61.5v24.9h56.5v19.9h-56.5v28.5h62.9v21.5H577.8z" id="svg_7"/>
	<path class="st1" d="M671.2,119.1L715.4,2.8h26.3l43.6,116.4h-26.6l-8.8-25.9h-43.6l-9.1,25.9H671.2z M728.1,31.5L713,74.2h30.2   l-14.7-42.7H728.1z" id="svg_8"/>
	<path class="st1" d="M894.3,2.8v72.4c0,15.4-4.3,27.1-13,35c-8.7,7.9-20.9,11.8-36.8,11.8c-16,0-28.3-3.9-36.8-11.7   c-8.5-7.8-12.8-19.5-12.8-35.1V2.8h25.6v72.4c0,7.7,1.7,13.9,5,18.4c3.3,4.6,9.7,6.8,19,6.8c8.9,0,15.2-2,18.8-5.9   c3.6-4,5.4-10.4,5.4-19.3V2.8H894.3z" id="svg_9"/>
	<path class="st1" d="M1007.2,119.1V2.8h25.5l48.7,78.1h0.3V2.8h24v116.4H1080l-48.5-77.9h-0.3v77.9H1007.2z" id="svg_10"/>
	<path class="st1" d="M1132.4,44c-4.7-4.7-7-10.4-7-17.1c0-6.7,2.3-12.4,7-17.1c4.7-4.7,10.4-7,17.1-7c6.8,0,12.5,2.3,17.1,7   c4.7,4.7,7,10.4,7,17.1c0,6.7-2.3,12.4-7,17.1c-4.7,4.7-10.4,7-17.1,7C1142.8,51,1137,48.7,1132.4,44z M1140,16.8   c-2.7,2.8-4.1,6.2-4.1,10.1s1.4,7.3,4.1,10.1c2.7,2.8,5.9,4.2,9.5,4.2c3.6,0,6.8-1.4,9.5-4.2c2.7-2.8,4.1-6.2,4.1-10.1   s-1.4-7.3-4.1-10.1c-2.7-2.8-5.9-4.2-9.5-4.2C1145.9,12.6,1142.8,14,1140,16.8z" id="svg_11"/>
	<path class="st1" d="M1263.8,5.1v19.1h-47.2L1212,50l0.3,0.3c5.9-5.9,13.3-8.8,22.4-8.8c10.9,0,19.5,3.7,25.8,11.1   c6.3,7.4,9.5,16.6,9.5,27.7c0,11.6-4.2,21.4-12.6,29.4c-8.4,8-18.3,11.9-29.9,11.7c-11.8,0-21.7-3.2-29.9-9.5   c-8.2-6.4-12.3-15.2-12.6-26.6h23.2c0.5,5.1,2.5,9.2,6,12.4c3.4,3.2,7.7,4.7,12.8,4.7c5.9,0,10.6-2.2,14.3-6.5   c3.7-4.3,5.5-9.5,5.5-15.5c0-6.1-1.8-11.2-5.3-15.2c-3.5-4.1-8.4-6.1-14.4-6.1c-4,0-7.3,0.7-10,2.1c-2.6,1.4-5.1,3.7-7.5,7h-20.9   L1200,5.1H1263.8z" id="svg_12"/>
</g></g></svg>