<svg xmlns="http://www.w3.org/2000/svg" xmlns:xlink="http://www.w3.org/1999/xlink" version="1.1" xml:space="preserve" width="177" height="36"><rect id="backgroundrect" width="100%" height="100%" x="0" y="0" fill="none" stroke="none" class=""/>
<style type="text/css">
	.st0{fill:#FFFFFF;}
</style>

<g class="currentLayer"><title>Layer 1</title><g id="svg_1" class="">
	<g id="svg_2">
		<path class="st0" d="M5.329070518200751e-15,16.600000190734864 V0.30000019073486334 h8.8 c1.4,0 2.6,0.4 3.4,1.3 c0.9,0.9 1.3,1.9 1.3,3.2 c0,2 -0.9,3.4 -2.6,4.1 v0 c1.4,0.4 2.2,1.7000000000000002 2.4,3.8 c0,0 0,0.3000000000000001 0,0.9 c0,0.5 0.1,0.9 0.1,1.2 c0,0.2 0.1,0.6000000000000002 0.2,0.9 c0.1,0.4 0.2,0.7000000000000002 0.4,0.9 h-3.6 c-0.1,-0.3000000000000001 -0.2,-0.7000000000000002 -0.3000000000000001,-1.1 c-0.1,-0.4 -0.1,-0.9 -0.2,-1.5 c0,-0.6000000000000002 -0.1,-1 -0.1,-1.3 c-0.1,-0.9 -0.4,-1.5 -0.8,-1.9 c-0.4,-0.4 -1,-0.6000000000000002 -1.9,-0.6000000000000002 h-3.6 v6.4 H5.329070518200751e-15 zM3.5000000000000053,3.100000190734864 v4.6 h3.9 c1.6,0 2.5,-0.8 2.5,-2.3 c0,-1.5 -0.8,-2.3 -2.5,-2.3 H3.5000000000000053 z" id="svg_3"/>
		<path class="st0" d="M15.700000000000006,8.500000190734863 c0,-2.5 0.7000000000000002,-4.5 2.2,-6.1 c1.4,-1.6 3.4,-2.4 5.8,-2.4 c2.4,0 4.4,0.8 5.8,2.4 c1.4,1.6 2.2,3.7 2.2,6.1 c0,2.4 -0.7000000000000002,4.4 -2.2,6 c-1.4,1.6 -3.4,2.4 -5.8,2.4 c-2.4,0 -4.4,-0.8 -5.8,-2.4 C16.400000000000006,12.900000190734865 15.700000000000006,10.900000190734865 15.700000000000006,8.500000190734863 zM19.300000000000004,8.500000190734863 c0,1.5 0.4,2.8 1.1,3.9 c0.7000000000000002,1.1 1.8,1.6 3.3,1.6 c1.5,0 2.6,-0.5 3.3,-1.6 c0.7000000000000002,-1.1 1.1,-2.3 1.1,-3.9 c0,-1 -0.1,-1.9 -0.4,-2.7 c-0.3000000000000001,-0.8 -0.8,-1.5 -1.4,-2 c-0.7000000000000002,-0.5 -1.5,-0.8 -2.5,-0.8 c-1,0 -1.9,0.3000000000000001 -2.5,0.8 c-0.7000000000000002,0.5 -1.2,1.2 -1.4,2 C19.400000000000006,6.600000190734865 19.300000000000004,7.500000190734863 19.300000000000004,8.500000190734863 z" id="svg_4"/>
		<path class="st0" d="M47.900000000000006,0.30000019073486334 v10.1 c0,2.2 -0.6000000000000002,3.8 -1.8,4.9 c-1.2,1.1 -2.9,1.6 -5.1,1.6 c-2.2,0 -3.9,-0.5 -5.1,-1.6 c-1.2,-1.1 -1.8,-2.7 -1.8,-4.9 V0.30000019073486334 h3.6 v10.1 c0,1.1 0.2,1.9 0.7000000000000002,2.6 c0.5,0.6000000000000002 1.3,1 2.7,1 c1.2,0 2.1,-0.3000000000000001 2.6,-0.8 c0.5,-0.6000000000000002 0.8,-1.5 0.8,-2.7 V0.30000019073486334 H47.900000000000006 z" id="svg_5"/>
		<path class="st0" d="M50.00000000000001,11.200000190734862 h3.5 c0,1 0.3000000000000001,1.8 1,2.3 c0.7000000000000002,0.5 1.5,0.7000000000000002 2.6,0.7000000000000002 c0.5,0 1,0 1.4,-0.1 c0.4,-0.1 0.8,-0.3000000000000001 1.2,-0.6000000000000002 c0.4,-0.3000000000000001 0.6000000000000002,-0.7000000000000002 0.6000000000000002,-1.2 c0,-0.3000000000000001 -0.1,-0.5 -0.2,-0.8 c-0.1,-0.2 -0.3000000000000001,-0.4 -0.5,-0.6000000000000002 c-0.2,-0.1 -0.5,-0.3000000000000001 -0.8,-0.4 c-0.4,-0.1 -0.7000000000000002,-0.2 -1,-0.3000000000000001 c-0.3000000000000001,-0.1 -0.7000000000000002,-0.2 -1.2,-0.3000000000000001 c-0.5,-0.1 -0.9,-0.2 -1.2,-0.3000000000000001 c-0.7000000000000002,-0.2 -1.3,-0.4 -1.8,-0.6000000000000002 c-0.5,-0.2 -1,-0.5 -1.5,-0.8 c-0.5,-0.3000000000000001 -0.9,-0.8 -1.1,-1.3 c-0.3000000000000001,-0.5 -0.4,-1.2 -0.4,-1.9 c0,-1.6 0.6000000000000002,-2.8 1.8,-3.6 c1.2,-0.9 2.6,-1.3 4.3,-1.3 c1.2,0 2.3,0.2 3.2,0.5 c0.9,0.3000000000000001 1.7000000000000002,0.9 2.4,1.7000000000000002 c0.6000000000000002,0.8 0.9,1.8 0.9,3 h-3.5 c-0.1,-1.6 -1.2,-2.5 -3.2,-2.5 c-0.7000000000000002,0 -1.2,0.2 -1.7000000000000002,0.5 c-0.5,0.3000000000000001 -0.7000000000000002,0.8 -0.7000000000000002,1.4 c0,0.6000000000000002 0.3000000000000001,1 0.8,1.3 c0.5,0.2 1.9,0.6000000000000002 4,1.2 c3.2,0.7000000000000002 4.8,2.3 4.8,4.7 c0,1.5 -0.6000000000000002,2.8 -1.8,3.8 c-1.2,1 -2.8,1.4 -5,1.4 c-2,0 -3.6,-0.5 -5,-1.5 C50.60000000000001,14.500000190734863 49.900000000000006,13.000000190734863 50.00000000000001,11.200000190734862 z" id="svg_6"/>
		<path class="st0" d="M64.7,11.200000190734862 h3.5 c0,1 0.3000000000000001,1.8 1,2.3 c0.7000000000000002,0.5 1.5,0.7000000000000002 2.6,0.7000000000000002 c0.5,0 1,0 1.4,-0.1 c0.4,-0.1 0.8,-0.3000000000000001 1.2,-0.6000000000000002 c0.4,-0.3000000000000001 0.6000000000000002,-0.7000000000000002 0.6000000000000002,-1.2 c0,-0.3000000000000001 -0.1,-0.5 -0.2,-0.8 c-0.1,-0.2 -0.3000000000000001,-0.4 -0.5,-0.6000000000000002 c-0.2,-0.1 -0.5,-0.3000000000000001 -0.8,-0.4 c-0.4,-0.1 -0.7000000000000002,-0.2 -1,-0.3000000000000001 c-0.3000000000000001,-0.1 -0.7000000000000002,-0.2 -1.2,-0.3000000000000001 c-0.5,-0.1 -0.9,-0.2 -1.2,-0.3000000000000001 c-0.7000000000000002,-0.2 -1.3,-0.4 -1.8,-0.6000000000000002 c-0.5,-0.2 -1,-0.5 -1.5,-0.8 c-0.5,-0.3000000000000001 -0.9,-0.8 -1.2,-1.3 c-0.3000000000000001,-0.5 -0.4,-1.2 -0.4,-1.9 c0,-1.6 0.6000000000000002,-2.8 1.8,-3.6 c1.2,-0.9 2.6,-1.3 4.3,-1.3 c1.2,0 2.3,0.2 3.2,0.5 c0.9,0.3000000000000001 1.7000000000000002,0.9 2.4,1.7000000000000002 c0.6000000000000002,0.8 0.9,1.8 0.9,3 h-3.5 c-0.1,-1.6 -1.2,-2.5 -3.2,-2.5 c-0.7000000000000002,0 -1.2,0.2 -1.7000000000000002,0.5 c-0.5,0.3000000000000001 -0.7000000000000002,0.8 -0.7000000000000002,1.4 c0,0.6000000000000002 0.3000000000000001,1 0.8,1.3 c0.5,0.2 1.9,0.6000000000000002 4.1,1.2 c3.2,0.7000000000000002 4.8,2.3 4.8,4.7 c0,1.5 -0.6000000000000002,2.8 -1.8,3.8 c-1.2,1 -2.8,1.4 -5,1.4 c-2,0 -3.6,-0.5 -5,-1.5 C65.4,14.500000190734863 64.7,13.000000190734863 64.7,11.200000190734862 z" id="svg_7"/>
		<path class="st0" d="M80.5,16.600000190734864 V0.30000019073486334 h12.2 v3 h-8.6 V6.800000190734863 h7.9 v2.8 h-7.9 v4 h8.8 v3 H80.5 z" id="svg_8"/>
		<path class="st0" d="M93.60000000000001,16.600000190734864 l6.2,-16.3 h3.7 l6.1,16.3 h-3.7 l-1.2,-3.6 h-6.1 l-1.3,3.6 H93.60000000000001 zM101.5,4.300000190734863 l-2.1,6 h4.2 L101.5,4.300000190734863 L101.5,4.300000190734863 z" id="svg_9"/>
		<path class="st0" d="M124.70000000000002,0.30000019073486334 v10.1 c0,2.2 -0.6000000000000002,3.8 -1.8,4.9 c-1.2,1.1 -2.9,1.6 -5.1,1.6 c-2.2,0 -3.9,-0.5 -5.1,-1.6 c-1.2,-1.1 -1.8,-2.7 -1.8,-4.9 V0.30000019073486334 h3.6 v10.1 c0,1.1 0.2,1.9 0.7000000000000002,2.6 c0.5,0.6000000000000002 1.3,1 2.6,1 c1.2,0 2.1,-0.3000000000000001 2.6,-0.8 c0.5,-0.6000000000000002 0.8,-1.5 0.8,-2.7 V0.30000019073486334 H124.70000000000002 z" id="svg_10"/>
		<path class="st0" d="M140.4,16.600000190734864 V0.30000019073486334 h3.5 l6.8,10.9 h0 V0.30000019073486334 h3.3 v16.3 h-3.6 l-6.8,-10.9 h0 v10.9 H140.4 z" id="svg_11"/>
		<path class="st0" d="M157.9,6.100000190734864 c-0.7000000000000002,-0.7000000000000002 -1,-1.4 -1,-2.4 c0,-0.9 0.3000000000000001,-1.7000000000000002 1,-2.4 c0.7000000000000002,-0.7000000000000002 1.4,-1 2.4,-1 c0.9,0 1.7000000000000002,0.3000000000000001 2.4,1 c0.7000000000000002,0.7000000000000002 1,1.5 1,2.4 c0,0.9 -0.3000000000000001,1.7000000000000002 -1,2.4 c-0.7000000000000002,0.7000000000000002 -1.4,1 -2.4,1 C159.3,7.000000190734863 158.5,6.700000190734862 157.9,6.100000190734864 zM158.9,2.3000001907348633 c-0.4,0.4 -0.6000000000000002,0.9 -0.6000000000000002,1.4 c0,0.5 0.2,1 0.6000000000000002,1.4 c0.4,0.4 0.8,0.6000000000000002 1.3,0.6000000000000002 c0.5,0 0.9,-0.2 1.3,-0.6000000000000002 c0.4,-0.4 0.6000000000000002,-0.9 0.6000000000000002,-1.4 c0,-0.5 -0.2,-1 -0.6000000000000002,-1.4 c-0.4,-0.4 -0.8,-0.6000000000000002 -1.3,-0.6000000000000002 C159.8,1.7000001907348623 159.3,1.9000001907348651 158.9,2.3000001907348633 z" id="svg_12"/>
		<path class="st0" d="M176.20000000000002,0.6000001907348642 v2.7 h-6.6 l-0.6000000000000002,3.6 l0,0 c0.8,-0.8 1.9,-1.2 3.1,-1.2 c1.5,0 2.7,0.5 3.6,1.5 c0.9,1 1.3,2.3 1.3,3.9 c0,1.6 -0.6000000000000002,3 -1.8,4.1 c-1.2,1.1 -2.6,1.7000000000000002 -4.2,1.6 c-1.6,0 -3,-0.4 -4.2,-1.3 c-1.1,-0.9 -1.7000000000000002,-2.1 -1.8,-3.7 h3.2 c0.1,0.7000000000000002 0.4,1.3 0.8,1.7000000000000002 c0.5,0.4 1.1,0.7000000000000002 1.8,0.7000000000000002 c0.8,0 1.5,-0.3000000000000001 2,-0.9 c0.5,-0.6000000000000002 0.8,-1.3 0.8,-2.2 c0,-0.8 -0.3000000000000001,-1.6 -0.7000000000000002,-2.1 c-0.5,-0.6000000000000002 -1.2,-0.9 -2,-0.9 c-0.6000000000000002,0 -1,0.1 -1.4,0.3000000000000001 c-0.4,0.2 -0.7000000000000002,0.5 -1,1 h-2.9 l1.6,-8.8 H176.20000000000002 z" id="svg_13"/>
	</g>
	<g id="svg_14">
		<path class="st0" d="M0.100000000000005,28.300000190734863 h0.6000000000000002 v6.2 h3.8 v0.5 h-4.4 V28.300000190734863 z" id="svg_15"/>
		<path class="st0" d="M9.200000000000006,28.300000190734863 v1 c0,0.1 0,0.3000000000000001 -0.1,0.4 c0,0.1 -0.1,0.3000000000000001 -0.2,0.4 c-0.1,0.1 -0.2,0.2 -0.3000000000000001,0.3000000000000001 c-0.1,0.1 -0.2,0.2 -0.4,0.2 v-0.4 c0.1,0 0.2,-0.1 0.2,-0.1 c0.1,-0.1 0.1,-0.1 0.1,-0.2 c0,-0.1 0.1,-0.2 0.1,-0.3000000000000001 c0,-0.1 0,-0.2 0,-0.3000000000000001 h-0.4 v-1 H9.200000000000006 z" id="svg_16"/>
		<path class="st0" d="M16.600000000000005,28.300000190734863 h0.7000000000000002 l2.6,6.7 h-0.7000000000000002 l-0.8,-2.1 h-3.1 l-0.8,2.1 H13.900000000000006 L16.600000000000005,28.300000190734863 zM15.600000000000005,32.400000190734865 h2.6 L16.900000000000006,29.000000190734866 L15.600000000000005,32.400000190734865 z" id="svg_17"/>
		<path class="st0" d="M30.10000000000001,35.10000019073486 h-0.5 L29.60000000000001,33.80000019073486 h0 c-0.1,0.2 -0.3000000000000001,0.4 -0.4,0.6000000000000002 c-0.2,0.2 -0.4,0.3000000000000001 -0.6000000000000002,0.4 c-0.2,0.1 -0.4,0.2 -0.6000000000000002,0.2 c-0.2,0.1 -0.5,0.1 -0.7000000000000002,0.1 c-0.5,0 -1,-0.1 -1.4,-0.3000000000000001 c-0.4,-0.2 -0.7000000000000002,-0.5 -1,-0.8 c-0.3000000000000001,-0.3000000000000001 -0.5,-0.7000000000000002 -0.6000000000000002,-1.1 c-0.1,-0.4 -0.2,-0.9 -0.2,-1.3 c0,-0.5 0.1,-0.9 0.2,-1.3 c0.1,-0.4 0.3000000000000001,-0.8 0.6000000000000002,-1.1 c0.3000000000000001,-0.3000000000000001 0.6000000000000002,-0.6000000000000002 1,-0.8 c0.4,-0.2 0.9,-0.3000000000000001 1.4,-0.3000000000000001 c0.4,0 0.7000000000000002,0 1,0.1 c0.3000000000000001,0.1 0.6000000000000002,0.2 0.8,0.4 c0.2,0.2 0.5,0.4 0.6000000000000002,0.7000000000000002 c0.2,0.3000000000000001 0.3000000000000001,0.6000000000000002 0.3000000000000001,1 h-0.6000000000000002 c0,-0.2 -0.1,-0.4 -0.2,-0.6000000000000002 c-0.1,-0.2 -0.3000000000000001,-0.4 -0.4,-0.5 c-0.2,-0.2 -0.4,-0.3000000000000001 -0.7000000000000002,-0.4 c-0.3000000000000001,-0.1 -0.5,-0.2 -0.9,-0.2 c-0.4,0 -0.8,0.1 -1.1,0.3000000000000001 c-0.3000000000000001,0.2 -0.6000000000000002,0.4 -0.8,0.7000000000000002 c-0.2,0.3000000000000001 -0.4,0.6000000000000002 -0.5,1 c-0.1,0.4 -0.1,0.7000000000000002 -0.1,1.1 c0,0.4 0,0.7000000000000002 0.1,1.1 c0.1,0.4 0.2,0.7000000000000002 0.5,0.9 c0.2,0.3000000000000001 0.5,0.5 0.8,0.7000000000000002 c0.3000000000000001,0.2 0.7000000000000002,0.3000000000000001 1.1,0.3000000000000001 c0.4,0 0.7000000000000002,-0.1 1,-0.2 c0.3000000000000001,-0.1 0.5,-0.3000000000000001 0.7000000000000002,-0.5 c0.2,-0.2 0.4,-0.5 0.5,-0.8 c0.1,-0.3000000000000001 0.1,-0.6000000000000002 0.1,-1 h-2.3 v-0.5 h2.9 V35.10000019073486 z" id="svg_18"/>
		<path class="st0" d="M35.2,28.300000190734863 H39.900000000000006 v0.5 h-4 v2.4 h3.7 v0.5 H35.900000000000006 v2.7 h4 v0.5 h-4.7 V28.300000190734863 z" id="svg_19"/>
		<path class="st0" d="M44.7,28.300000190734863 h0.7000000000000002 l3.9,5.7 h0 v-5.7 h0.6000000000000002 v6.7 h-0.7000000000000002 l-3.9,-5.7 h0 v5.7 h-0.6000000000000002 V28.300000190734863 z" id="svg_20"/>
		<path class="st0" d="M60.10000000000001,30.400000190734865 c-0.1,-0.3000000000000001 -0.1,-0.5 -0.3000000000000001,-0.7000000000000002 c-0.1,-0.2 -0.3000000000000001,-0.4 -0.5,-0.5 c-0.2,-0.1 -0.4,-0.2 -0.6000000000000002,-0.3000000000000001 c-0.2,-0.1 -0.5,-0.1 -0.7000000000000002,-0.1 c-0.4,0 -0.8,0.1 -1.1,0.3000000000000001 c-0.3000000000000001,0.2 -0.6000000000000002,0.4 -0.8,0.7000000000000002 c-0.2,0.3000000000000001 -0.4,0.6000000000000002 -0.5,1 c-0.1,0.4 -0.1,0.7000000000000002 -0.1,1.1 c0,0.4 0,0.7000000000000002 0.1,1.1 c0.1,0.4 0.2,0.7000000000000002 0.5,0.9 c0.2,0.3000000000000001 0.5,0.5 0.8,0.7000000000000002 c0.3000000000000001,0.2 0.7000000000000002,0.3000000000000001 1.1,0.3000000000000001 c0.3000000000000001,0 0.6000000000000002,-0.1 0.8,-0.2 c0.3000000000000001,-0.1 0.5,-0.3000000000000001 0.7000000000000002,-0.5 c0.2,-0.2 0.3000000000000001,-0.4 0.4,-0.7000000000000002 c0.1,-0.3000000000000001 0.2,-0.5 0.2,-0.8 h0.6000000000000002 c0,0.4 -0.1,0.8 -0.3000000000000001,1.1 c-0.1,0.3000000000000001 -0.3000000000000001,0.6000000000000002 -0.6000000000000002,0.9 c-0.2,0.2 -0.5,0.4 -0.8,0.5 c-0.3000000000000001,0.1 -0.7000000000000002,0.2 -1.1,0.2 c-0.5,0 -1,-0.1 -1.4,-0.3000000000000001 c-0.4,-0.2 -0.7000000000000002,-0.5 -1,-0.8 c-0.3000000000000001,-0.3000000000000001 -0.5,-0.7000000000000002 -0.6000000000000002,-1.1 C54.900000000000006,32.60000019073486 54.900000000000006,32.20000019073486 54.900000000000006,31.700000190734862 c0,-0.5 0.1,-0.9 0.2,-1.3 c0.1,-0.4 0.3000000000000001,-0.8 0.6000000000000002,-1.1 c0.3000000000000001,-0.3000000000000001 0.6000000000000002,-0.6000000000000002 1,-0.8 c0.4,-0.2 0.9,-0.3000000000000001 1.4,-0.3000000000000001 c0.3000000000000001,0 0.6000000000000002,0 0.9,0.1 c0.3000000000000001,0.1 0.6000000000000002,0.2 0.8,0.4 c0.2,0.2 0.5,0.4 0.6000000000000002,0.7000000000000002 c0.2,0.3000000000000001 0.3000000000000001,0.6000000000000002 0.3000000000000001,0.9 H60.10000000000001 z" id="svg_21"/>
		<path class="st0" d="M65.7,28.300000190734863 h4.6 v0.5 h-4 v2.4 h3.7 v0.5 h-3.7 v2.7 h4 v0.5 h-4.7 V28.300000190734863 z" id="svg_22"/>
		<path class="st0" d="M81.7,28.300000190734863 h0.6000000000000002 v6.7 h-0.6000000000000002 V28.300000190734863 z" id="svg_23"/>
		<path class="st0" d="M87.5,28.300000190734863 h0.9 l2.3,5.9 l2.3,-5.9 h0.9 v6.7 h-0.6000000000000002 v-5.8 h0 l-2.3,5.8 h-0.6000000000000002 l-2.3,-5.8 h0 v5.8 h-0.6000000000000002 V28.300000190734863 z" id="svg_24"/>
		<path class="st0" d="M99.30000000000001,28.300000190734863 h0.9 l2.3,5.9 l2.3,-5.9 h0.9 v6.7 h-0.6000000000000002 v-5.8 h0 l-2.3,5.8 h-0.6000000000000002 l-2.3,-5.8 h0 v5.8 h-0.6000000000000002 V28.300000190734863 z" id="svg_25"/>
		<path class="st0" d="M110.60000000000001,31.700000190734862 c0,-0.5 0.1,-0.9 0.2,-1.3 c0.1,-0.4 0.3000000000000001,-0.8 0.6000000000000002,-1.1 c0.3000000000000001,-0.3000000000000001 0.6000000000000002,-0.6000000000000002 1,-0.8 c0.4,-0.2 0.9,-0.3000000000000001 1.4,-0.3000000000000001 c0.5,0 1,0.1 1.4,0.3000000000000001 c0.4,0.2 0.7000000000000002,0.5 1,0.8 c0.3000000000000001,0.3000000000000001 0.5,0.7000000000000002 0.6000000000000002,1.1 c0.1,0.4 0.2,0.9 0.2,1.3 c0,0.5 -0.1,0.9 -0.2,1.3 c-0.1,0.4 -0.3000000000000001,0.8 -0.6000000000000002,1.1 c-0.3000000000000001,0.3000000000000001 -0.6000000000000002,0.6000000000000002 -1,0.8 c-0.4,0.2 -0.9,0.3000000000000001 -1.4,0.3000000000000001 c-0.5,0 -1,-0.1 -1.4,-0.3000000000000001 c-0.4,-0.2 -0.7000000000000002,-0.5 -1,-0.8 c-0.3000000000000001,-0.3000000000000001 -0.5,-0.7000000000000002 -0.6000000000000002,-1.1 C110.7,32.60000019073486 110.60000000000001,32.20000019073486 110.60000000000001,31.700000190734862 zM111.30000000000001,31.700000190734862 c0,0.4 0.1,0.7000000000000002 0.1,1.1 c0.1,0.4 0.2,0.7000000000000002 0.5,0.9 c0.2,0.3000000000000001 0.5,0.5 0.8,0.7000000000000002 c0.3000000000000001,0.2 0.7000000000000002,0.3000000000000001 1.2,0.3000000000000001 c0.4,0 0.8,-0.1 1.1,-0.3000000000000001 c0.3000000000000001,-0.2 0.6000000000000002,-0.4 0.8,-0.7000000000000002 c0.2,-0.3000000000000001 0.4,-0.6000000000000002 0.5,-0.9 c0.1,-0.4 0.1,-0.7000000000000002 0.1,-1.1 c0,-0.4 -0.1,-0.7000000000000002 -0.1,-1.1 c-0.1,-0.4 -0.2,-0.7000000000000002 -0.5,-1 c-0.2,-0.3000000000000001 -0.5,-0.5 -0.8,-0.7000000000000002 c-0.3000000000000001,-0.2 -0.7000000000000002,-0.3000000000000001 -1.1,-0.3000000000000001 c-0.4,0 -0.8,0.1 -1.2,0.3000000000000001 c-0.3000000000000001,0.2 -0.6000000000000002,0.4 -0.8,0.7000000000000002 c-0.2,0.3000000000000001 -0.4,0.6000000000000002 -0.5,1 C111.30000000000001,31.000000190734866 111.30000000000001,31.300000190734863 111.30000000000001,31.700000190734862 z" id="svg_26"/>
		<path class="st0" d="M121.80000000000001,28.300000190734863 h2.8 c0.3000000000000001,0 0.6000000000000002,0 0.8,0.1 c0.3000000000000001,0.1 0.5,0.1 0.7000000000000002,0.3000000000000001 c0.2,0.1 0.4,0.3000000000000001 0.5,0.5 c0.1,0.2 0.2,0.5 0.2,0.8 c0,0.2 0,0.3000000000000001 -0.1,0.5 c-0.1,0.2 -0.1,0.3000000000000001 -0.2,0.4 c-0.1,0.1 -0.2,0.3000000000000001 -0.4,0.3000000000000001 c-0.1,0.1 -0.3000000000000001,0.2 -0.5,0.2 v0 c0.4,0.1 0.8,0.2 1,0.5 c0.3000000000000001,0.3000000000000001 0.4,0.7000000000000002 0.4,1.1 c0,0.2 0,0.3000000000000001 -0.1,0.6000000000000002 c0,0.2 -0.2,0.4 -0.3000000000000001,0.6000000000000002 c-0.2,0.2 -0.4,0.4 -0.7000000000000002,0.5 c-0.3000000000000001,0.1 -0.8,0.2 -1.3,0.2 h-2.8 V28.300000190734863 zM122.5,31.300000190734863 h2.2 c0.3000000000000001,0 0.5,0 0.7000000000000002,-0.1 c0.2,-0.1 0.3000000000000001,-0.1 0.5,-0.2 c0.1,-0.1 0.2,-0.2 0.3000000000000001,-0.4 c0.1,-0.1 0.1,-0.3000000000000001 0.1,-0.4 c0,-0.8 -0.5,-1.3 -1.5,-1.3 h-2.2 V31.300000190734863 zM122.5,34.500000190734866 h2.2 c0.2,0 0.5,0 0.7000000000000002,-0.1 c0.2,0 0.4,-0.1 0.6000000000000002,-0.2 c0.2,-0.1 0.3000000000000001,-0.2 0.4,-0.4 c0.1,-0.2 0.1,-0.4 0.1,-0.7000000000000002 c0,-0.4 -0.2,-0.8 -0.5,-1 c-0.3000000000000001,-0.2 -0.7000000000000002,-0.3000000000000001 -1.3,-0.3000000000000001 h-2.2 V34.500000190734866 z" id="svg_27"/>
		<path class="st0" d="M132,28.300000190734863 h0.6000000000000002 v6.7 h-0.6000000000000002 V28.300000190734863 z" id="svg_28"/>
		<path class="st0" d="M137.9,28.300000190734863 h0.6000000000000002 v6.2 h3.8 v0.5 H137.9 V28.300000190734863 z" id="svg_29"/>
		<path class="st0" d="M146.9,28.300000190734863 h0.6000000000000002 v6.7 H146.9 V28.300000190734863 z" id="svg_30"/>
		<path class="st0" d="M152.8,28.300000190734863 h4.6 v0.5 h-4 v2.4 h3.8 v0.5 h-3.8 v2.7 h4.1 v0.5 h-4.7 V28.300000190734863 z" id="svg_31"/>
		<path class="st0" d="M162.20000000000002,28.300000190734863 h3.1 c0.3000000000000001,0 0.5,0 0.8,0.1 c0.2,0.1 0.5,0.2 0.7000000000000002,0.3000000000000001 c0.2,0.1 0.3000000000000001,0.3000000000000001 0.4,0.5 c0.1,0.2 0.2,0.5 0.2,0.8 c0,0.4 -0.1,0.8 -0.3000000000000001,1.1 c-0.2,0.3000000000000001 -0.5,0.5 -1,0.6000000000000002 v0 c0.2,0 0.4,0.1 0.5,0.2 c0.1,0.1 0.3000000000000001,0.2 0.4,0.3000000000000001 c0.1,0.1 0.2,0.3000000000000001 0.2,0.5 c0,0.2 0.1,0.4 0.1,0.6000000000000002 c0,0.1 0,0.3000000000000001 0,0.4 c0,0.2 0,0.3000000000000001 0,0.5 c0,0.2 0,0.3000000000000001 0.1,0.5 c0,0.1 0.1,0.3000000000000001 0.2,0.3000000000000001 h-0.7000000000000002 c0,-0.1 -0.1,-0.1 -0.1,-0.2 c0,-0.1 0,-0.2 0,-0.3000000000000001 c0,-0.1 0,-0.2 0,-0.3000000000000001 c0,-0.1 0,-0.2 0,-0.2 c0,-0.2 0,-0.5 -0.1,-0.7000000000000002 c0,-0.2 -0.1,-0.4 -0.2,-0.6000000000000002 c-0.1,-0.2 -0.2,-0.3000000000000001 -0.4,-0.4 c-0.2,-0.1 -0.4,-0.2 -0.7000000000000002,-0.2 H162.9 v3 h-0.6000000000000002 V28.300000190734863 zM162.9,31.500000190734866 h2.4 c0.2,0 0.4,0 0.6000000000000002,-0.1 c0.2,-0.1 0.3000000000000001,-0.1 0.5,-0.3000000000000001 c0.1,-0.1 0.2,-0.2 0.3000000000000001,-0.4 c0.1,-0.2 0.1,-0.3000000000000001 0.1,-0.5 c0,-0.4 -0.1,-0.7000000000000002 -0.4,-1 c-0.2,-0.2 -0.6000000000000002,-0.4 -1.1,-0.4 H162.9 V31.500000190734866 z" id="svg_32"/>
		<path class="st0" d="M172.4,28.300000190734863 h4.6 v0.5 h-4 v2.4 h3.7 v0.5 h-3.7 v2.7 h4 v0.5 h-4.7 V28.300000190734863 z" id="svg_33"/>
	</g>
</g></g></svg>