<?xml version="1.0" encoding="utf-8"?>
<!-- Generator: Adobe Illustrator 21.0.0, SVG Export Plug-In . SVG Version: 6.00 Build 0)  -->
<svg version="1.1" id="Calque_1" xmlns="http://www.w3.org/2000/svg" xmlns:xlink="http://www.w3.org/1999/xlink" x="0px" y="0px"
	 viewBox="0 0 200 66.8" style="enable-background:new 0 0 200 66.8;" xml:space="preserve">
<style type="text/css">
	.st0{fill:#FFFFFF;}
</style>
<g>
	<g>
		<path class="st0" d="M11.1,31.8V15.5h8.8c1.4,0,2.6,0.4,3.4,1.3c0.9,0.9,1.3,1.9,1.3,3.2c0,2-0.9,3.4-2.6,4.1v0
			c1.4,0.4,2.2,1.7,2.4,3.8c0,0,0,0.3,0,0.9c0,0.5,0.1,0.9,0.1,1.2c0,0.2,0.1,0.6,0.2,0.9c0.1,0.4,0.2,0.7,0.4,0.9h-3.6
			c-0.1-0.3-0.2-0.7-0.3-1.1c-0.1-0.4-0.1-0.9-0.2-1.5c0-0.6-0.1-1-0.1-1.3c-0.1-0.9-0.4-1.5-0.8-1.9c-0.4-0.4-1-0.6-1.9-0.6h-3.6
			v6.4H11.1z M14.6,18.3v4.6h3.9c1.6,0,2.5-0.8,2.5-2.3c0-1.5-0.8-2.3-2.5-2.3H14.6z"/>
		<path class="st0" d="M26.8,23.7c0-2.5,0.7-4.5,2.2-6.1c1.4-1.6,3.4-2.4,5.8-2.4c2.4,0,4.4,0.8,5.8,2.4c1.4,1.6,2.2,3.7,2.2,6.1
			c0,2.4-0.7,4.4-2.2,6c-1.4,1.6-3.4,2.4-5.8,2.4c-2.4,0-4.4-0.8-5.8-2.4C27.5,28.1,26.8,26.1,26.8,23.7z M30.4,23.7
			c0,1.5,0.4,2.8,1.1,3.9c0.7,1.1,1.8,1.6,3.3,1.6c1.5,0,2.6-0.5,3.3-1.6c0.7-1.1,1.1-2.3,1.1-3.9c0-1-0.1-1.9-0.4-2.7
			c-0.3-0.8-0.8-1.5-1.4-2c-0.7-0.5-1.5-0.8-2.5-0.8c-1,0-1.9,0.3-2.5,0.8c-0.7,0.5-1.2,1.2-1.4,2C30.5,21.8,30.4,22.7,30.4,23.7z"
			/>
		<path class="st0" d="M59,15.5v10.1c0,2.2-0.6,3.8-1.8,4.9c-1.2,1.1-2.9,1.6-5.1,1.6c-2.2,0-3.9-0.5-5.1-1.6
			c-1.2-1.1-1.8-2.7-1.8-4.9V15.5h3.6v10.1c0,1.1,0.2,1.9,0.7,2.6c0.5,0.6,1.3,1,2.7,1c1.2,0,2.1-0.3,2.6-0.8
			c0.5-0.6,0.8-1.5,0.8-2.7V15.5H59z"/>
		<path class="st0" d="M61.1,26.4h3.5c0,1,0.3,1.8,1,2.3c0.7,0.5,1.5,0.7,2.6,0.7c0.5,0,1,0,1.4-0.1c0.4-0.1,0.8-0.3,1.2-0.6
			c0.4-0.3,0.6-0.7,0.6-1.2c0-0.3-0.1-0.5-0.2-0.8c-0.1-0.2-0.3-0.4-0.5-0.6c-0.2-0.1-0.5-0.3-0.8-0.4c-0.4-0.1-0.7-0.2-1-0.3
			c-0.3-0.1-0.7-0.2-1.2-0.3c-0.5-0.1-0.9-0.2-1.2-0.3c-0.7-0.2-1.3-0.4-1.8-0.6c-0.5-0.2-1-0.5-1.5-0.8c-0.5-0.3-0.9-0.8-1.1-1.3
			c-0.3-0.5-0.4-1.2-0.4-1.9c0-1.6,0.6-2.8,1.8-3.6c1.2-0.9,2.6-1.3,4.3-1.3c1.2,0,2.3,0.2,3.2,0.5c0.9,0.3,1.7,0.9,2.4,1.7
			c0.6,0.8,0.9,1.8,0.9,3h-3.5c-0.1-1.6-1.2-2.5-3.2-2.5c-0.7,0-1.2,0.2-1.7,0.5c-0.5,0.3-0.7,0.8-0.7,1.4c0,0.6,0.3,1,0.8,1.3
			c0.5,0.2,1.9,0.6,4,1.2c3.2,0.7,4.8,2.3,4.8,4.7c0,1.5-0.6,2.8-1.8,3.8c-1.2,1-2.8,1.4-5,1.4c-2,0-3.6-0.5-5-1.5
			C61.7,29.7,61,28.2,61.1,26.4z"/>
		<path class="st0" d="M75.8,26.4h3.5c0,1,0.3,1.8,1,2.3c0.7,0.5,1.5,0.7,2.6,0.7c0.5,0,1,0,1.4-0.1c0.4-0.1,0.8-0.3,1.2-0.6
			c0.4-0.3,0.6-0.7,0.6-1.2c0-0.3-0.1-0.5-0.2-0.8c-0.1-0.2-0.3-0.4-0.5-0.6c-0.2-0.1-0.5-0.3-0.8-0.4c-0.4-0.1-0.7-0.2-1-0.3
			c-0.3-0.1-0.7-0.2-1.2-0.3c-0.5-0.1-0.9-0.2-1.2-0.3c-0.7-0.2-1.3-0.4-1.8-0.6c-0.5-0.2-1-0.5-1.5-0.8c-0.5-0.3-0.9-0.8-1.2-1.3
			c-0.3-0.5-0.4-1.2-0.4-1.9c0-1.6,0.6-2.8,1.8-3.6c1.2-0.9,2.6-1.3,4.3-1.3c1.2,0,2.3,0.2,3.2,0.5c0.9,0.3,1.7,0.9,2.4,1.7
			c0.6,0.8,0.9,1.8,0.9,3h-3.5c-0.1-1.6-1.2-2.5-3.2-2.5c-0.7,0-1.2,0.2-1.7,0.5c-0.5,0.3-0.7,0.8-0.7,1.4c0,0.6,0.3,1,0.8,1.3
			c0.5,0.2,1.9,0.6,4.1,1.2c3.2,0.7,4.8,2.3,4.8,4.7c0,1.5-0.6,2.8-1.8,3.8c-1.2,1-2.8,1.4-5,1.4c-2,0-3.6-0.5-5-1.5
			C76.5,29.7,75.8,28.2,75.8,26.4z"/>
		<path class="st0" d="M91.6,31.8V15.5h12.2v3h-8.6V22h7.9v2.8h-7.9v4h8.8v3H91.6z"/>
		<path class="st0" d="M104.7,31.8l6.2-16.3h3.7l6.1,16.3h-3.7l-1.2-3.6h-6.1l-1.3,3.6H104.7z M112.6,19.5l-2.1,6h4.2L112.6,19.5
			L112.6,19.5z"/>
		<path class="st0" d="M135.8,15.5v10.1c0,2.2-0.6,3.8-1.8,4.9c-1.2,1.1-2.9,1.6-5.1,1.6c-2.2,0-3.9-0.5-5.1-1.6
			c-1.2-1.1-1.8-2.7-1.8-4.9V15.5h3.6v10.1c0,1.1,0.2,1.9,0.7,2.6c0.5,0.6,1.3,1,2.6,1c1.2,0,2.1-0.3,2.6-0.8
			c0.5-0.6,0.8-1.5,0.8-2.7V15.5H135.8z"/>
		<path class="st0" d="M151.5,31.8V15.5h3.5l6.8,10.9h0V15.5h3.3v16.3h-3.6l-6.8-10.9h0v10.9H151.5z"/>
		<path class="st0" d="M169,21.3c-0.7-0.7-1-1.4-1-2.4c0-0.9,0.3-1.7,1-2.4c0.7-0.7,1.4-1,2.4-1c0.9,0,1.7,0.3,2.4,1
			c0.7,0.7,1,1.5,1,2.4c0,0.9-0.3,1.7-1,2.4c-0.7,0.7-1.4,1-2.4,1C170.4,22.2,169.6,21.9,169,21.3z M170,17.5
			c-0.4,0.4-0.6,0.9-0.6,1.4c0,0.5,0.2,1,0.6,1.4c0.4,0.4,0.8,0.6,1.3,0.6c0.5,0,0.9-0.2,1.3-0.6c0.4-0.4,0.6-0.9,0.6-1.4
			c0-0.5-0.2-1-0.6-1.4c-0.4-0.4-0.8-0.6-1.3-0.6C170.9,16.9,170.4,17.1,170,17.5z"/>
		<path class="st0" d="M187.3,15.8v2.7h-6.6l-0.6,3.6l0,0c0.8-0.8,1.9-1.2,3.1-1.2c1.5,0,2.7,0.5,3.6,1.5c0.9,1,1.3,2.3,1.3,3.9
			c0,1.6-0.6,3-1.8,4.1c-1.2,1.1-2.6,1.7-4.2,1.6c-1.6,0-3-0.4-4.2-1.3c-1.1-0.9-1.7-2.1-1.8-3.7h3.2c0.1,0.7,0.4,1.3,0.8,1.7
			c0.5,0.4,1.1,0.7,1.8,0.7c0.8,0,1.5-0.3,2-0.9c0.5-0.6,0.8-1.3,0.8-2.2c0-0.8-0.3-1.6-0.7-2.1c-0.5-0.6-1.2-0.9-2-0.9
			c-0.6,0-1,0.1-1.4,0.3c-0.4,0.2-0.7,0.5-1,1h-2.9l1.6-8.8H187.3z"/>
	</g>
	<g>
		<path class="st0" d="M11.2,43.5h0.6v6.2h3.8v0.5h-4.4V43.5z"/>
		<path class="st0" d="M20.3,43.5v1c0,0.1,0,0.3-0.1,0.4c0,0.1-0.1,0.3-0.2,0.4c-0.1,0.1-0.2,0.2-0.3,0.3c-0.1,0.1-0.2,0.2-0.4,0.2
			v-0.4c0.1,0,0.2-0.1,0.2-0.1c0.1-0.1,0.1-0.1,0.1-0.2c0-0.1,0.1-0.2,0.1-0.3c0-0.1,0-0.2,0-0.3h-0.4v-1H20.3z"/>
		<path class="st0" d="M27.7,43.5h0.7l2.6,6.7h-0.7l-0.8-2.1h-3.1l-0.8,2.1H25L27.7,43.5z M26.7,47.6h2.6L28,44.2L26.7,47.6z"/>
		<path class="st0" d="M41.2,50.3h-0.5L40.7,49h0c-0.1,0.2-0.3,0.4-0.4,0.6c-0.2,0.2-0.4,0.3-0.6,0.4c-0.2,0.1-0.4,0.2-0.6,0.2
			c-0.2,0.1-0.5,0.1-0.7,0.1c-0.5,0-1-0.1-1.4-0.3c-0.4-0.2-0.7-0.5-1-0.8c-0.3-0.3-0.5-0.7-0.6-1.1c-0.1-0.4-0.2-0.9-0.2-1.3
			c0-0.5,0.1-0.9,0.2-1.3c0.1-0.4,0.3-0.8,0.6-1.1c0.3-0.3,0.6-0.6,1-0.8c0.4-0.2,0.9-0.3,1.4-0.3c0.4,0,0.7,0,1,0.1
			c0.3,0.1,0.6,0.2,0.8,0.4c0.2,0.2,0.5,0.4,0.6,0.7c0.2,0.3,0.3,0.6,0.3,1h-0.6c0-0.2-0.1-0.4-0.2-0.6c-0.1-0.2-0.3-0.4-0.4-0.5
			c-0.2-0.2-0.4-0.3-0.7-0.4c-0.3-0.1-0.5-0.2-0.9-0.2c-0.4,0-0.8,0.1-1.1,0.3c-0.3,0.2-0.6,0.4-0.8,0.7c-0.2,0.3-0.4,0.6-0.5,1
			c-0.1,0.4-0.1,0.7-0.1,1.1c0,0.4,0,0.7,0.1,1.1c0.1,0.4,0.2,0.7,0.5,0.9c0.2,0.3,0.5,0.5,0.8,0.7c0.3,0.2,0.7,0.3,1.1,0.3
			c0.4,0,0.7-0.1,1-0.2c0.3-0.1,0.5-0.3,0.7-0.5c0.2-0.2,0.4-0.5,0.5-0.8c0.1-0.3,0.1-0.6,0.1-1h-2.3v-0.5h2.9V50.3z"/>
		<path class="st0" d="M46.3,43.5H51v0.5h-4v2.4h3.7v0.5H47v2.7h4v0.5h-4.7V43.5z"/>
		<path class="st0" d="M55.8,43.5h0.7l3.9,5.7h0v-5.7h0.6v6.7h-0.7l-3.9-5.7h0v5.7h-0.6V43.5z"/>
		<path class="st0" d="M71.2,45.6c-0.1-0.3-0.1-0.5-0.3-0.7c-0.1-0.2-0.3-0.4-0.5-0.5c-0.2-0.1-0.4-0.2-0.6-0.3
			c-0.2-0.1-0.5-0.1-0.7-0.1c-0.4,0-0.8,0.1-1.1,0.3c-0.3,0.2-0.6,0.4-0.8,0.7c-0.2,0.3-0.4,0.6-0.5,1c-0.1,0.4-0.1,0.7-0.1,1.1
			c0,0.4,0,0.7,0.1,1.1c0.1,0.4,0.2,0.7,0.5,0.9c0.2,0.3,0.5,0.5,0.8,0.7c0.3,0.2,0.7,0.3,1.1,0.3c0.3,0,0.6-0.1,0.8-0.2
			c0.3-0.1,0.5-0.3,0.7-0.5c0.2-0.2,0.3-0.4,0.4-0.7c0.1-0.3,0.2-0.5,0.2-0.8h0.6c0,0.4-0.1,0.8-0.3,1.1c-0.1,0.3-0.3,0.6-0.6,0.9
			c-0.2,0.2-0.5,0.4-0.8,0.5c-0.3,0.1-0.7,0.2-1.1,0.2c-0.5,0-1-0.1-1.4-0.3c-0.4-0.2-0.7-0.5-1-0.8c-0.3-0.3-0.5-0.7-0.6-1.1
			C66,47.8,66,47.4,66,46.9c0-0.5,0.1-0.9,0.2-1.3c0.1-0.4,0.3-0.8,0.6-1.1c0.3-0.3,0.6-0.6,1-0.8c0.4-0.2,0.9-0.3,1.4-0.3
			c0.3,0,0.6,0,0.9,0.1c0.3,0.1,0.6,0.2,0.8,0.4c0.2,0.2,0.5,0.4,0.6,0.7c0.2,0.3,0.3,0.6,0.3,0.9H71.2z"/>
		<path class="st0" d="M76.8,43.5h4.6v0.5h-4v2.4h3.7v0.5h-3.7v2.7h4v0.5h-4.7V43.5z"/>
		<path class="st0" d="M92.8,43.5h0.6v6.7h-0.6V43.5z"/>
		<path class="st0" d="M98.6,43.5h0.9l2.3,5.9l2.3-5.9h0.9v6.7h-0.6v-5.8h0l-2.3,5.8h-0.6l-2.3-5.8h0v5.8h-0.6V43.5z"/>
		<path class="st0" d="M110.4,43.5h0.9l2.3,5.9l2.3-5.9h0.9v6.7h-0.6v-5.8h0l-2.3,5.8h-0.6l-2.3-5.8h0v5.8h-0.6V43.5z"/>
		<path class="st0" d="M121.7,46.9c0-0.5,0.1-0.9,0.2-1.3c0.1-0.4,0.3-0.8,0.6-1.1c0.3-0.3,0.6-0.6,1-0.8c0.4-0.2,0.9-0.3,1.4-0.3
			c0.5,0,1,0.1,1.4,0.3c0.4,0.2,0.7,0.5,1,0.8c0.3,0.3,0.5,0.7,0.6,1.1c0.1,0.4,0.2,0.9,0.2,1.3c0,0.5-0.1,0.9-0.2,1.3
			c-0.1,0.4-0.3,0.8-0.6,1.1c-0.3,0.3-0.6,0.6-1,0.8c-0.4,0.2-0.9,0.3-1.4,0.3c-0.5,0-1-0.1-1.4-0.3c-0.4-0.2-0.7-0.5-1-0.8
			c-0.3-0.3-0.5-0.7-0.6-1.1C121.8,47.8,121.7,47.4,121.7,46.9z M122.4,46.9c0,0.4,0.1,0.7,0.1,1.1c0.1,0.4,0.2,0.7,0.5,0.9
			c0.2,0.3,0.5,0.5,0.8,0.7c0.3,0.2,0.7,0.3,1.2,0.3c0.4,0,0.8-0.1,1.1-0.3c0.3-0.2,0.6-0.4,0.8-0.7c0.2-0.3,0.4-0.6,0.5-0.9
			c0.1-0.4,0.1-0.7,0.1-1.1c0-0.4-0.1-0.7-0.1-1.1c-0.1-0.4-0.2-0.7-0.5-1c-0.2-0.3-0.5-0.5-0.8-0.7c-0.3-0.2-0.7-0.3-1.1-0.3
			c-0.4,0-0.8,0.1-1.2,0.3c-0.3,0.2-0.6,0.4-0.8,0.7c-0.2,0.3-0.4,0.6-0.5,1C122.4,46.2,122.4,46.5,122.4,46.9z"/>
		<path class="st0" d="M132.9,43.5h2.8c0.3,0,0.6,0,0.8,0.1c0.3,0.1,0.5,0.1,0.7,0.3c0.2,0.1,0.4,0.3,0.5,0.5
			c0.1,0.2,0.2,0.5,0.2,0.8c0,0.2,0,0.3-0.1,0.5c-0.1,0.2-0.1,0.3-0.2,0.4c-0.1,0.1-0.2,0.3-0.4,0.3c-0.1,0.1-0.3,0.2-0.5,0.2v0
			c0.4,0.1,0.8,0.2,1,0.5c0.3,0.3,0.4,0.7,0.4,1.1c0,0.2,0,0.3-0.1,0.6c0,0.2-0.2,0.4-0.3,0.6c-0.2,0.2-0.4,0.4-0.7,0.5
			c-0.3,0.1-0.8,0.2-1.3,0.2h-2.8V43.5z M133.6,46.5h2.2c0.3,0,0.5,0,0.7-0.1c0.2-0.1,0.3-0.1,0.5-0.2c0.1-0.1,0.2-0.2,0.3-0.4
			c0.1-0.1,0.1-0.3,0.1-0.4c0-0.8-0.5-1.3-1.5-1.3h-2.2V46.5z M133.6,49.7h2.2c0.2,0,0.5,0,0.7-0.1c0.2,0,0.4-0.1,0.6-0.2
			c0.2-0.1,0.3-0.2,0.4-0.4c0.1-0.2,0.1-0.4,0.1-0.7c0-0.4-0.2-0.8-0.5-1c-0.3-0.2-0.7-0.3-1.3-0.3h-2.2V49.7z"/>
		<path class="st0" d="M143.1,43.5h0.6v6.7h-0.6V43.5z"/>
		<path class="st0" d="M149,43.5h0.6v6.2h3.8v0.5H149V43.5z"/>
		<path class="st0" d="M158,43.5h0.6v6.7H158V43.5z"/>
		<path class="st0" d="M163.9,43.5h4.6v0.5h-4v2.4h3.8v0.5h-3.8v2.7h4.1v0.5h-4.7V43.5z"/>
		<path class="st0" d="M173.3,43.5h3.1c0.3,0,0.5,0,0.8,0.1c0.2,0.1,0.5,0.2,0.7,0.3c0.2,0.1,0.3,0.3,0.4,0.5
			c0.1,0.2,0.2,0.5,0.2,0.8c0,0.4-0.1,0.8-0.3,1.1c-0.2,0.3-0.5,0.5-1,0.6v0c0.2,0,0.4,0.1,0.5,0.2c0.1,0.1,0.3,0.2,0.4,0.3
			c0.1,0.1,0.2,0.3,0.2,0.5c0,0.2,0.1,0.4,0.1,0.6c0,0.1,0,0.3,0,0.4c0,0.2,0,0.3,0,0.5c0,0.2,0,0.3,0.1,0.5c0,0.1,0.1,0.3,0.2,0.3
			h-0.7c0-0.1-0.1-0.1-0.1-0.2c0-0.1,0-0.2,0-0.3c0-0.1,0-0.2,0-0.3c0-0.1,0-0.2,0-0.2c0-0.2,0-0.5-0.1-0.7c0-0.2-0.1-0.4-0.2-0.6
			c-0.1-0.2-0.2-0.3-0.4-0.4c-0.2-0.1-0.4-0.2-0.7-0.2H174v3h-0.6V43.5z M174,46.7h2.4c0.2,0,0.4,0,0.6-0.1c0.2-0.1,0.3-0.1,0.5-0.3
			c0.1-0.1,0.2-0.2,0.3-0.4c0.1-0.2,0.1-0.3,0.1-0.5c0-0.4-0.1-0.7-0.4-1c-0.2-0.2-0.6-0.4-1.1-0.4H174V46.7z"/>
		<path class="st0" d="M183.5,43.5h4.6v0.5h-4v2.4h3.7v0.5h-3.7v2.7h4v0.5h-4.7V43.5z"/>
	</g>
</g>
</svg>
